<mxfile host="app.diagrams.net" modified="2023-03-31T00:42:20.318Z" agent="Mozilla/5.0 (Macintosh; Intel Mac OS X 10_15_7) AppleWebKit/537.36 (KHTML, like Gecko) Chrome/111.0.0.0 Safari/537.36" etag="zVOUIzKIvr7rNnivW7ao" version="21.1.2" type="github">
  <diagram id="3228e29e-7158-1315-38df-8450db1d8a1d" name="Page-1">
    <mxGraphModel dx="1306" dy="949" grid="0" gridSize="10" guides="1" tooltips="1" connect="1" arrows="1" fold="1" page="1" pageScale="1" pageWidth="1210" pageHeight="180" background="#EFF1F3" math="0" shadow="0">
      <root>
        <mxCell id="0" />
        <mxCell id="1" parent="0" />
        <mxCell id="nIpTpKBfMwLntaTUKELC-4" style="edgeStyle=orthogonalEdgeStyle;orthogonalLoop=1;jettySize=auto;html=1;exitX=1;exitY=0.5;exitDx=0;exitDy=0;exitPerimeter=0;entryX=0;entryY=0.5;entryDx=0;entryDy=0;entryPerimeter=0;strokeWidth=5;rounded=0;" parent="1" source="WelgVeyDKxLRvEI-DW8B-16" target="nIpTpKBfMwLntaTUKELC-3" edge="1">
          <mxGeometry relative="1" as="geometry" />
        </mxCell>
        <mxCell id="WelgVeyDKxLRvEI-DW8B-16" value="" style="fontColor=#0066CC;verticalAlign=top;verticalLabelPosition=bottom;labelPosition=center;align=center;html=1;outlineConnect=0;gradientColor=none;gradientDirection=north;strokeWidth=2;shape=mxgraph.networks.pc;fillColor=#4A919B;" parent="1" vertex="1">
          <mxGeometry x="77.00000000000003" y="19" width="147.15" height="103" as="geometry" />
        </mxCell>
        <mxCell id="WelgVeyDKxLRvEI-DW8B-18" value="" style="fontColor=#0066CC;verticalAlign=top;verticalLabelPosition=bottom;labelPosition=center;align=center;html=1;outlineConnect=0;gradientColor=none;gradientDirection=north;strokeWidth=2;shape=mxgraph.networks.pc;fillColor=#4A919B;" parent="1" vertex="1">
          <mxGeometry x="823" y="125" width="147.15" height="103" as="geometry" />
        </mxCell>
        <mxCell id="hxIQwMxnJQ58AHrIh3xL-1" value="&lt;font style=&quot;font-size: 50px&quot;&gt;A&lt;/font&gt;" style="text;html=1;strokeColor=none;fillColor=none;align=center;verticalAlign=middle;whiteSpace=wrap;rounded=0;" parent="1" vertex="1">
          <mxGeometry x="142" y="49" width="40" height="20" as="geometry" />
        </mxCell>
        <mxCell id="hxIQwMxnJQ58AHrIh3xL-2" value="&lt;font style=&quot;font-size: 50px&quot;&gt;B&lt;/font&gt;" style="text;html=1;strokeColor=none;fillColor=none;align=center;verticalAlign=middle;whiteSpace=wrap;rounded=0;" parent="1" vertex="1">
          <mxGeometry x="893" y="155" width="40" height="20" as="geometry" />
        </mxCell>
        <mxCell id="BuwI_Xl8O7fkygsIPCAy-1" value="&lt;span style=&quot;font-size: 15px&quot;&gt;我是A,IP地址是192.168.31.6；MAC地址是&lt;/span&gt;&lt;span style=&quot;font-size: 15px ; color: rgb(51 , 51 , 51) ; font-family: &amp;#34;open sans&amp;#34; , &amp;#34;clear sans&amp;#34; , &amp;#34;helvetica neue&amp;#34; , &amp;#34;helvetica&amp;#34; , &amp;#34;arial&amp;#34; , sans-serif&quot;&gt;AA:AA:AA:AA:AA:AA；&lt;br&gt;谁是&lt;/span&gt;&lt;span style=&quot;font-size: 15px&quot;&gt;192.168.31.7？&lt;/span&gt;&lt;br style=&quot;font-size: 15px&quot;&gt;&lt;span style=&quot;font-size: 15px&quot;&gt;你MAC地址是多少？收到请回复&lt;/span&gt;" style="shape=callout;whiteSpace=wrap;html=1;perimeter=calloutPerimeter;rounded=1;position2=0.5;" parent="1" vertex="1">
          <mxGeometry x="166" y="-100" width="240" height="140" as="geometry" />
        </mxCell>
        <mxCell id="BuwI_Xl8O7fkygsIPCAy-8" value="IP地址：192.168.31.6" style="text;html=1;strokeColor=none;fillColor=none;align=center;verticalAlign=middle;whiteSpace=wrap;rounded=0;fontSize=20;" parent="1" vertex="1">
          <mxGeometry x="77.5" y="140" width="253.5" height="20" as="geometry" />
        </mxCell>
        <mxCell id="BuwI_Xl8O7fkygsIPCAy-9" value="MAC地址：&lt;span style=&quot;color: rgb(51, 51, 51); font-family: &amp;quot;open sans&amp;quot;, &amp;quot;clear sans&amp;quot;, &amp;quot;helvetica neue&amp;quot;, helvetica, arial, sans-serif; font-size: 20px;&quot;&gt;AA:AA:AA:AA:AA:AA&lt;/span&gt;" style="text;html=1;strokeColor=none;fillColor=none;align=center;verticalAlign=middle;whiteSpace=wrap;rounded=0;fontSize=20;" parent="1" vertex="1">
          <mxGeometry x="86" y="160" width="320" height="30" as="geometry" />
        </mxCell>
        <mxCell id="BuwI_Xl8O7fkygsIPCAy-10" value="IP地址：192.168.31.7" style="text;html=1;strokeColor=none;fillColor=none;align=center;verticalAlign=middle;whiteSpace=wrap;rounded=0;fontSize=20;" parent="1" vertex="1">
          <mxGeometry x="803" y="246" width="253.5" height="20" as="geometry" />
        </mxCell>
        <mxCell id="BuwI_Xl8O7fkygsIPCAy-11" value="MAC地址：BB&lt;span style=&quot;color: rgb(51 , 51 , 51) ; font-family: &amp;#34;open sans&amp;#34; , &amp;#34;clear sans&amp;#34; , &amp;#34;helvetica neue&amp;#34; , &amp;#34;helvetica&amp;#34; , &amp;#34;arial&amp;#34; , sans-serif ; font-size: 20px&quot;&gt;:BB:BB:BB:BB:BB&lt;/span&gt;" style="text;html=1;strokeColor=none;fillColor=none;align=center;verticalAlign=middle;whiteSpace=wrap;rounded=0;fontSize=20;" parent="1" vertex="1">
          <mxGeometry x="811.5" y="266" width="320" height="30" as="geometry" />
        </mxCell>
        <mxCell id="BuwI_Xl8O7fkygsIPCAy-16" value="" style="shape=flexArrow;endArrow=classic;html=1;fontSize=20;fillColor=#6DB5A8;strokeColor=#6DB5A8;" parent="1" edge="1">
          <mxGeometry width="50" height="50" relative="1" as="geometry">
            <mxPoint x="261" y="-120" as="sourcePoint" />
            <mxPoint x="311" y="-120" as="targetPoint" />
          </mxGeometry>
        </mxCell>
        <mxCell id="BuwI_Xl8O7fkygsIPCAy-18" value="" style="shape=flexArrow;endArrow=classic;html=1;fontSize=20;fillColor=#6DB5A8;strokeColor=#6DB5A8;" parent="1" edge="1">
          <mxGeometry width="50" height="50" relative="1" as="geometry">
            <mxPoint x="775" y="203" as="sourcePoint" />
            <mxPoint x="725" y="203" as="targetPoint" />
          </mxGeometry>
        </mxCell>
        <mxCell id="BuwI_Xl8O7fkygsIPCAy-19" value="&lt;span style=&quot;font-size: 15px&quot;&gt;收到！我就是B,&lt;br&gt;IP地址是192.168.31.7；&lt;br&gt;MAC地址是&lt;/span&gt;&lt;span style=&quot;font-size: 15px&quot;&gt;BB&lt;/span&gt;&lt;span style=&quot;font-size: 15px ; color: rgb(51 , 51 , 51) ; font-family: &amp;#34;open sans&amp;#34; , &amp;#34;clear sans&amp;#34; , &amp;#34;helvetica neue&amp;#34; , &amp;#34;helvetica&amp;#34; , &amp;#34;arial&amp;#34; , sans-serif&quot;&gt;:BB:BB:BB:BB:BB&lt;/span&gt;&lt;span style=&quot;font-size: 15px ; color: rgb(51 , 51 , 51) ; font-family: &amp;#34;open sans&amp;#34; , &amp;#34;clear sans&amp;#34; , &amp;#34;helvetica neue&amp;#34; , &amp;#34;helvetica&amp;#34; , &amp;#34;arial&amp;#34; , sans-serif&quot;&gt;；&lt;br&gt;&lt;/span&gt;" style="shape=callout;whiteSpace=wrap;html=1;perimeter=calloutPerimeter;position2=0.48;direction=west;rounded=1;" parent="1" vertex="1">
          <mxGeometry x="541.5" y="195" width="270" height="150" as="geometry" />
        </mxCell>
        <mxCell id="BuwI_Xl8O7fkygsIPCAy-22" value="&lt;span&gt;b.ARP广播&lt;/span&gt;" style="rounded=1;whiteSpace=wrap;html=1;fontSize=20;fillColor=#FDD276;" parent="1" vertex="1">
          <mxGeometry x="485" y="-20" width="120" height="60" as="geometry" />
        </mxCell>
        <mxCell id="BuwI_Xl8O7fkygsIPCAy-23" value="&lt;span&gt;a.查本地ARP表&lt;/span&gt;" style="rounded=1;whiteSpace=wrap;html=1;fontSize=20;fillColor=#FDD276;" parent="1" vertex="1">
          <mxGeometry x="11" y="-60" width="120" height="60" as="geometry" />
        </mxCell>
        <mxCell id="BuwI_Xl8O7fkygsIPCAy-24" value="&lt;span&gt;c.ARP应答&lt;/span&gt;" style="rounded=1;whiteSpace=wrap;html=1;fontSize=20;fillColor=#FDD276;" parent="1" vertex="1">
          <mxGeometry x="678" y="100" width="120" height="60" as="geometry" />
        </mxCell>
        <mxCell id="BuwI_Xl8O7fkygsIPCAy-25" value="&lt;span&gt;d.缓存B的IP和MAC关系到本地表&lt;/span&gt;" style="rounded=1;whiteSpace=wrap;html=1;fontSize=20;fillColor=#FDD276;" parent="1" vertex="1">
          <mxGeometry x="131" y="200" width="170" height="80" as="geometry" />
        </mxCell>
        <mxCell id="nIpTpKBfMwLntaTUKELC-2" value="&lt;font style=&quot;font-size: 18px&quot;&gt;交换机&lt;/font&gt;" style="text;html=1;strokeColor=none;fillColor=none;align=center;verticalAlign=middle;whiteSpace=wrap;rounded=0;fontSize=30;" parent="1" vertex="1">
          <mxGeometry x="377" y="13" width="100" height="31" as="geometry" />
        </mxCell>
        <mxCell id="nIpTpKBfMwLntaTUKELC-9" style="edgeStyle=orthogonalEdgeStyle;rounded=0;orthogonalLoop=1;jettySize=auto;html=1;exitX=0.5;exitY=0;exitDx=0;exitDy=0;exitPerimeter=0;entryX=0;entryY=0.5;entryDx=0;entryDy=0;entryPerimeter=0;strokeColor=#000000;strokeWidth=5;" parent="1" source="nIpTpKBfMwLntaTUKELC-3" target="nIpTpKBfMwLntaTUKELC-5" edge="1">
          <mxGeometry relative="1" as="geometry">
            <Array as="points">
              <mxPoint x="467" y="-83" />
            </Array>
          </mxGeometry>
        </mxCell>
        <mxCell id="nIpTpKBfMwLntaTUKELC-10" style="edgeStyle=orthogonalEdgeStyle;rounded=0;orthogonalLoop=1;jettySize=auto;html=1;exitX=0.5;exitY=1;exitDx=0;exitDy=0;exitPerimeter=0;entryX=0;entryY=0.5;entryDx=0;entryDy=0;entryPerimeter=0;strokeColor=#000000;strokeWidth=5;" parent="1" source="nIpTpKBfMwLntaTUKELC-3" target="WelgVeyDKxLRvEI-DW8B-18" edge="1">
          <mxGeometry relative="1" as="geometry" />
        </mxCell>
        <mxCell id="nIpTpKBfMwLntaTUKELC-3" value="" style="fontColor=#0066CC;verticalAlign=top;verticalLabelPosition=bottom;labelPosition=center;align=center;html=1;outlineConnect=0;gradientColor=none;gradientDirection=north;strokeWidth=1;shape=mxgraph.networks.switch;fillColor=#535E80;" parent="1" vertex="1">
          <mxGeometry x="400" y="50.5" width="133.33" height="40" as="geometry" />
        </mxCell>
        <mxCell id="nIpTpKBfMwLntaTUKELC-5" value="" style="fontColor=#0066CC;verticalAlign=top;verticalLabelPosition=bottom;labelPosition=center;align=center;html=1;outlineConnect=0;gradientColor=none;gradientDirection=north;strokeWidth=2;shape=mxgraph.networks.pc;fillColor=#4A919B;" parent="1" vertex="1">
          <mxGeometry x="818" y="-135" width="147.15" height="103" as="geometry" />
        </mxCell>
        <mxCell id="nIpTpKBfMwLntaTUKELC-6" value="&lt;font style=&quot;font-size: 50px&quot;&gt;C&lt;/font&gt;" style="text;html=1;strokeColor=none;fillColor=none;align=center;verticalAlign=middle;whiteSpace=wrap;rounded=0;" parent="1" vertex="1">
          <mxGeometry x="888" y="-105" width="40" height="20" as="geometry" />
        </mxCell>
        <mxCell id="nIpTpKBfMwLntaTUKELC-7" value="IP地址：192.168.31.1" style="text;html=1;strokeColor=none;fillColor=none;align=center;verticalAlign=middle;whiteSpace=wrap;rounded=0;fontSize=20;" parent="1" vertex="1">
          <mxGeometry x="798" y="-14" width="253.5" height="20" as="geometry" />
        </mxCell>
        <mxCell id="nIpTpKBfMwLntaTUKELC-8" value="MAC地址：CC&lt;span style=&quot;color: rgb(51 , 51 , 51) ; font-family: &amp;#34;open sans&amp;#34; , &amp;#34;clear sans&amp;#34; , &amp;#34;helvetica neue&amp;#34; , &amp;#34;helvetica&amp;#34; , &amp;#34;arial&amp;#34; , sans-serif ; font-size: 20px&quot;&gt;:CC:CC:CC:CC:CC&lt;/span&gt;" style="text;html=1;strokeColor=none;fillColor=none;align=center;verticalAlign=middle;whiteSpace=wrap;rounded=0;fontSize=20;" parent="1" vertex="1">
          <mxGeometry x="806.5" y="6" width="320" height="30" as="geometry" />
        </mxCell>
        <mxCell id="nIpTpKBfMwLntaTUKELC-11" value="" style="shape=flexArrow;endArrow=classic;html=1;fontSize=20;fillColor=#6DB5A8;strokeColor=#6DB5A8;" parent="1" edge="1">
          <mxGeometry width="50" height="50" relative="1" as="geometry">
            <mxPoint x="476.99999999999983" y="-105" as="sourcePoint" />
            <mxPoint x="526.9999999999998" y="-105" as="targetPoint" />
          </mxGeometry>
        </mxCell>
        <mxCell id="nIpTpKBfMwLntaTUKELC-12" value="" style="shape=flexArrow;endArrow=classic;html=1;fontSize=20;fillColor=#6DB5A8;strokeColor=#6DB5A8;" parent="1" edge="1">
          <mxGeometry width="50" height="50" relative="1" as="geometry">
            <mxPoint x="483.33000000000015" y="204" as="sourcePoint" />
            <mxPoint x="533.3300000000002" y="204" as="targetPoint" />
          </mxGeometry>
        </mxCell>
        <mxCell id="nIpTpKBfMwLntaTUKELC-13" value="&lt;span style=&quot;font-size: 15px ; color: rgb(51 , 51 , 51) ; font-family: &amp;#34;open sans&amp;#34; , &amp;#34;clear sans&amp;#34; , &amp;#34;helvetica neue&amp;#34; , &amp;#34;helvetica&amp;#34; , &amp;#34;arial&amp;#34; , sans-serif&quot;&gt;不是找我，扔掉消息吧&lt;br&gt;&lt;/span&gt;" style="shape=callout;whiteSpace=wrap;html=1;perimeter=calloutPerimeter;position2=0.95;direction=west;rounded=1;base=12;size=34;position=0.83;" parent="1" vertex="1">
          <mxGeometry x="985" y="-123" width="177" height="91" as="geometry" />
        </mxCell>
      </root>
    </mxGraphModel>
  </diagram>
</mxfile>
